HIERARCHY
ROOT Hips
{
	OFFSET	0.00	0.00	0.00
	CHANNELS 6 Xposition Yposition Zposition Zrotation Xrotation Yrotation
	JOINT LeftUpLeg
	{
		OFFSET	 0.126116	-0.014019	-0.065224
		CHANNELS 3 Zrotation Xrotation Yrotation
		JOINT LeftLeg
		{
			OFFSET	 0.000000	 0.000000	 0.569914
			CHANNELS 3 Zrotation Xrotation Yrotation
			JOINT LeftFoot
			{
				OFFSET	 0.000000	 0.000000	 0.544423
				CHANNELS 3 Zrotation Xrotation Yrotation
				JOINT LeftToeBase
				{
					OFFSET	 0.000000	 0.000000	 0.207117
					CHANNELS 3 Zrotation Xrotation Yrotation
					End Site
					{
						OFFSET	 0.000000	 0.000000	 0.207117
					}
				}
			}
		}
	}
	JOINT RightUpLeg
	{
		OFFSET	-0.124023	-0.008373	-0.065224
		CHANNELS 3 Zrotation Xrotation Yrotation
		JOINT RightLeg
		{
			OFFSET	 0.000000	 0.000000	 0.570047
			CHANNELS 3 Zrotation Xrotation Yrotation
			JOINT RightFoot
			{
				OFFSET	 0.000000	 0.000000	 0.544354
				CHANNELS 3 Zrotation Xrotation Yrotation
				JOINT RightToeBase
				{
					OFFSET	 0.000000	 0.000000	 0.207540
					CHANNELS 3 Zrotation Xrotation Yrotation
					End Site
					{
						OFFSET	 0.000000	 0.000000	 0.207540
					}
				}
			}
		}
	}
	JOINT Spine
	{
		OFFSET	 0.000184	-0.007763	 0.117403
		CHANNELS 3 Zrotation Xrotation Yrotation
		JOINT Spine1
		{
			OFFSET	 0.000000	 0.000000	 0.137269
			CHANNELS 3 Zrotation Xrotation Yrotation
			JOINT Spine2
			{
				OFFSET	 0.000000	 0.000000	 0.156879
				CHANNELS 3 Zrotation Xrotation Yrotation
				JOINT LeftShoulder
				{
					OFFSET	 0.080501	-0.002496	 0.160144
					CHANNELS 3 Zrotation Xrotation Yrotation
					JOINT LeftArm
					{
						OFFSET	 0.000000	 0.000000	 0.164363
						CHANNELS 3 Zrotation Xrotation Yrotation
						JOINT LeftForeArm
						{
							OFFSET	 0.000000	 0.000000	 0.364576
							CHANNELS 3 Zrotation Xrotation Yrotation
							JOINT LeftHand
							{
								OFFSET	 0.000000	 0.000000	 0.360812
								CHANNELS 3 Zrotation Xrotation Yrotation
								JOINT LeftHandIndex1
								{
									OFFSET	 0.000000	 0.000000	 0.086006
									CHANNELS 3 Zrotation Xrotation Yrotation
									JOINT LeftHandIndex2
									{
										OFFSET	 0.000000	 0.000000	 0.047236
										CHANNELS 3 Zrotation Xrotation Yrotation
										JOINT LeftHandIndex3
										{
											OFFSET	-0.004284	-0.000551	 0.038166
											CHANNELS 3 Zrotation Xrotation Yrotation
											End Site
											{
												OFFSET	-0.004284	-0.000551	 0.038166
											}
										}
									}
								}
							}
						}
					}
				}
				JOINT Neck
				{
					OFFSET	 0.000000	 0.000000	 0.176489
					CHANNELS 3 Zrotation Xrotation Yrotation
					JOINT Head
					{
						OFFSET	 0.000000	-0.001747	 0.077940
						CHANNELS 3 Zrotation Xrotation Yrotation
						End Site
						{
							OFFSET	 0.000000	-0.001747	 0.077940
						}
					}
				}
				JOINT RightShoulder
				{
					OFFSET	-0.080363	 0.000306	 0.159706
					CHANNELS 3 Zrotation Xrotation Yrotation
					JOINT RightArm
					{
						OFFSET	 0.000000	 0.000000	 0.164196
						CHANNELS 3 Zrotation Xrotation Yrotation
						JOINT RightForeArm
						{
							OFFSET	 0.000000	 0.000000	 0.365611
							CHANNELS 3 Zrotation Xrotation Yrotation
							JOINT RightHand
							{
								OFFSET	 0.000000	 0.000000	 0.360648
								CHANNELS 3 Zrotation Xrotation Yrotation
								JOINT RightHandIndex1
								{
									OFFSET	 0.000000	 0.000000	 0.069977
									CHANNELS 3 Zrotation Xrotation Yrotation
									JOINT RightHandIndex2
									{
										OFFSET	 0.000000	 0.000000	 0.052305
										CHANNELS 3 Zrotation Xrotation Yrotation
										JOINT RightHandIndex3
										{
											OFFSET	 0.009002	-0.000782	 0.042196
											CHANNELS 3 Zrotation Xrotation Yrotation
											End Site
											{
												OFFSET	 0.009002	-0.000782	 0.042196
											}
										}
									}
								}
							}
						}
					}
				}
			}
		}
	}
}
MOTION
Frames:    8
Frame Time: 0.03333334
-0.023515	 0.278117	 1.002199	 3.531896	 32.460600	-8.784029	 75.543340	-73.777450	-115.829900	 7.109860	-72.616870	 7.186333	 74.274640	 68.884820	-89.618380	-2.385832	 28.452790	-0.000001	 62.469760	-86.185150	-110.393800	-20.233220	-77.479570	-14.743970	-37.410380	 74.854590	 66.978450	 2.384659	 28.388700	-0.000001	 10.232410	 14.314200	 0.381076	-1.160811	 16.326610	 0.269703	-6.784018	 2.188913	 5.063253	-99.198460	 68.206260	 156.674200	-0.866909	-12.484110	-44.866020	 6.290860	-1.538751	-6.356934	-39.196130	-14.610750	-22.572400	-2.027600	 6.559038	 9.033609	-5.188889	 0.308190	 3.541030	-5.234859	 0.342567	 0.430617	 0.485400	 18.272460	-6.335712	-5.664417	-27.318530	-3.358751	 97.498490	 64.643420	-159.223000	-11.098800	 5.461760	 58.575090	-19.768340	-7.171526	 29.796030	 23.744190	-14.630910	 17.992630	 1.803333	 3.979147	-15.098590	 4.898592	 3.004813	-9.310344	 5.224449	 0.395017	 2.014677
-0.021606	 0.275979	 1.012314	 3.336709	 31.772620	-8.411362	 70.808710	-72.828780	-120.933900	 6.284148	-71.300240	 6.349942	 73.959330	 68.890500	-88.820440	-2.385832	 28.452790	-0.000001	 35.569310	-85.656520	-136.765600	-18.952310	-76.109570	-13.417100	-37.354050	 74.834240	 66.609840	 2.384659	 28.388700	-0.000001	 6.909175	 14.014410	 0.283197	-1.022428	 16.042790	 0.172376	-6.775466	 1.840121	 4.846275	-99.073950	 68.190780	 157.079100	-0.450863	-11.168860	-45.076510	 8.338947	-1.980651	-7.059097	-39.632950	-14.725810	-22.890210	-2.027600	 6.559038	 9.033609	-5.188889	 0.308190	 3.541030	-5.234859	 0.342567	 0.430617	 0.121512	 16.310870	-5.403395	-5.878062	-25.348640	-3.680871	 97.397610	 64.580080	-159.554500	-11.898150	 5.691952	 57.186660	-20.686480	-8.672722	 32.522050	 24.029810	-14.686320	 18.763730	 1.803333	 3.979147	-15.098590	 4.898592	 3.004813	-9.310344	 5.224449	 0.395017	 2.014677
-0.020189	 0.273901	 1.020402	 3.260965	 31.208120	-8.150619	 67.243860	-71.997140	-124.733700	 5.832325	-70.219040	 5.882807	 73.417360	 68.911580	-87.965630	-2.385832	 28.452790	-0.000001	 19.884520	-84.727010	-151.942700	-18.115800	-75.012940	-12.542540	-37.254760	 74.827470	 66.230030	 2.384659	 28.388700	-0.000001	 4.246847	 13.758020	 0.218448	-0.904795	 15.918240	 0.071748	-6.790940	 1.488381	 4.657446	-98.864700	 68.384920	 157.432500	-0.125407	-9.974521	-45.409720	 9.948642	-2.353161	-7.584975	-40.008140	-14.852210	-23.276920	-2.027600	 6.559038	 9.033609	-5.188889	 0.308190	 3.541030	-5.234859	 0.342567	 0.430617	-0.133903	 14.376100	-4.867240	-5.957684	-23.420510	-3.736033	 97.287240	 64.410650	-160.006500	-12.575820	 5.650320	 56.299500	-21.333350	-9.935926	 34.655750	 24.020440	-14.575260	 19.339190	 1.803333	 3.979147	-15.098590	 4.898592	 3.004813	-9.310344	 5.224449	 0.395017	 2.014677
-0.018314	 0.271034	 1.030595	 3.199207	 30.530210	-7.824986	 63.240890	-70.880890	-129.008900	 5.360068	-68.832680	 5.389237	 72.655530	 68.934940	-86.807450	-2.385832	 28.452790	-0.000001	 7.331180	-83.208080	-163.849200	-17.203920	-73.597600	-11.580450	-36.980920	 74.817030	 65.614880	 2.384659	 28.388700	-0.000001	 0.976621	 13.409110	 0.124434	-0.760666	 15.734040	-0.049394	-6.821674	 1.065249	 4.422246	-98.584100	 68.672900	 157.873500	 0.277313	-8.449910	-45.830360	 11.860470	-2.829178	-8.186589	-40.464800	-15.023110	-23.789500	-2.027600	 6.559038	 9.033609	-5.188889	 0.308190	 3.541030	-5.234859	 0.342567	 0.430617	-0.417678	 11.917470	-4.275049	-6.025832	-20.977670	-3.748006	 97.141690	 64.175200	-160.601600	-13.449720	 5.556832	 55.214400	-21.968140	-11.551160	 37.306450	 23.957960	-14.391100	 20.024070	 1.803333	 3.979147	-15.098590	 4.898592	 3.004813	-9.310344	 5.224449	 0.395017	 2.014677
-0.016535	 0.268103	 1.040157	 3.135241	 29.873450	-7.502144	 59.848670	-69.739430	-132.689700	 4.975004	-67.520630	 4.984030	 71.970960	 68.978450	-85.727890	-2.385832	 28.452790	-0.000001	-0.256758	-81.562870	-170.830900	-16.498880	-72.235570	-10.824400	-36.678130	 74.825810	 64.988990	 2.384659	 28.388700	-0.000001	-2.067154	 13.067640	 0.038818	-0.650727	 15.575730	-0.133544	-6.850617	 0.621123	 4.181853	-98.254630	 69.077260	 158.301100	 0.693415	-6.905638	-46.220190	 13.584360	-3.285861	-8.704393	-40.896790	-15.172030	-24.370380	-2.027600	 6.559038	 9.033609	-5.188889	 0.308190	 3.541030	-5.234859	 0.342567	 0.430617	-0.649703	 9.412796	-3.708816	-6.097215	-18.508860	-3.782432	 96.990030	 64.080030	-161.081000	-14.287250	 5.704973	 54.208470	-22.514500	-13.149270	 39.724720	 23.874250	-14.210320	 20.567820	 1.803333	 3.979147	-15.098590	 4.898592	 3.004813	-9.310344	 5.224449	 0.395017	 2.014677
-0.014776	 0.264753	 1.050154	 3.041896	 29.111320	-7.138585	 56.560340	-68.420750	-136.351700	 4.624867	-66.144400	 4.612658	 71.292560	 69.076610	-84.615000	-2.385833	 28.452760	 0.000004	-5.867236	-79.648110	-175.795300	-15.918550	-70.780940	-10.184830	-36.405700	 74.870260	 64.355060	 2.384659	 28.388700	-0.000001	-5.285374	 12.705770	-0.028221	-0.572950	 15.492700	-0.180561	-6.877387	 0.028756	 3.887428	-97.774450	 69.760140	 158.784300	 1.199728	-5.046555	-46.676400	 15.368910	-3.779553	-9.211415	-41.376370	-15.305050	-25.174160	-2.027600	 6.559038	 9.033609	-5.188889	 0.308190	 3.541030	-5.234859	 0.342567	 0.430617	-0.850792	 6.350168	-3.063348	-6.193664	-15.519710	-3.867124	 96.817570	 64.191810	-161.547400	-15.190420	 6.251522	 53.271610	-23.150170	-14.975520	 42.149980	 23.726600	-14.018640	 20.988820	 1.803333	 3.979147	-15.098590	 4.898592	 3.004813	-9.310344	 5.224449	 0.395017	 2.014677
-0.013241	 0.261175	 1.059909	 2.935718	 28.349350	-6.790163	 53.633700	-67.057320	-139.663200	 4.323788	-64.780490	 4.290268	 70.546620	 69.228720	-83.435680	-2.385833	 28.452750	 0.000004	-9.751336	-77.685150	-179.053000	-15.431140	-69.331900	-9.635764	-36.165020	 74.890430	 63.758980	 2.384659	 28.388700	-0.000001	-8.375082	 12.346440	-0.071944	-0.479108	 15.351780	-0.184490	-6.912705	-0.528016	 3.581043	-97.293970	 70.450840	 159.259900	 1.691157	-3.193357	-47.149680	 17.052610	-4.270340	-9.669876	-41.837110	-15.449050	-25.976890	-2.027600	 6.559038	 9.033609	-5.188889	 0.308190	 3.541030	-5.234859	 0.342567	 0.430617	-1.014750	 3.319697	-2.447516	-6.272292	-12.568000	-3.931409	 96.630380	 64.332500	-161.917400	-16.058540	 6.841162	 52.317990	-23.618740	-16.785550	 44.482880	 23.581010	-13.835710	 21.402340	 1.803333	 3.979147	-15.098590	 4.898592	 3.004813	-9.310344	 5.224449	 0.395017	 2.014677
-0.012170	 0.258062	 1.068290	 2.814113	 27.590370	-6.441020	 51.203040	-65.801570	-142.504200	 4.242298	-63.601100	 4.174831	 69.820960	 69.407370	-82.407430	-2.385833	 28.452760	 0.000004	-12.659010	-75.842660	 178.604000	-15.200040	-68.044940	-9.337972	-36.177800	 74.948770	 63.468800	 2.384659	 28.388700	-0.000001	-11.090570	 12.081930	-0.084602	-0.366463	 15.393990	-0.274961	-6.923522	-1.156107	 3.352375	-96.509370	 71.755230	 159.654800	 2.147817	-0.995762	-47.997130	 18.555460	-4.715216	-10.051240	-42.365810	-15.645140	-26.692830	-2.027600	 6.559038	 9.033609	-5.188889	 0.308190	 3.541030	-5.234859	 0.342567	 0.430617	-1.143036	 0.345739	-2.318754	-6.239928	-9.701301	-3.629172	 96.214800	 65.128440	-162.350600	-16.771230	 8.077900	 52.178440	-24.118080	-18.429420	 46.252650	 23.651540	-14.073090	 21.844570	 1.803333	 3.979147	-15.098590	 4.898592	 3.004813	-9.310344	 5.224449	 0.395017	 2.014677
